<?xml version="1.0" encoding="UTF-8" standalone="no"?>
<svg width="156px" height="43px" viewBox="0 0 156 43" version="1.1" xmlns="http://www.w3.org/2000/svg" xmlns:xlink="http://www.w3.org/1999/xlink">
    <!-- Generator: Sketch 43.1 (39012) - http://www.bohemiancoding.com/sketch -->
    <title>jobify Logo_v1</title>
    <desc>Created with Sketch.</desc>
    <defs></defs>
    <g id="Broshure-Pages" stroke="none" stroke-width="1" fill="none" fill-rule="evenodd">
        <g id="Jobify_YP_How_Jobify_Works" transform="translate(-135.000000, -43.000000)">
            <g id="header-nav" transform="translate(135.000000, 43.000000)">
                <g id="jobify-Logo_v1">
                    <g id="icon" transform="translate(0.000000, 1.000000)" fill="#206B80">
                        <path d="M5.721,6.789 C5.721,6.317 6.106,5.932 6.58,5.932 L9.013,5.932 L9.013,0.223 L5.15,0.223 C2.312,0.223 0.011,2.524 0.011,5.362 L0.011,11.166 L5.721,11.166 L5.721,6.789" id="Fill-1"></path>
                        <path d="M10.1,27.02 L6.578,27.014 C6.103,27.014 5.72,26.629 5.72,26.157 L5.709,14.035 L0,14.035 L0.011,27.584 C0.011,30.422 2.373,32.627 5.213,32.627 L10.1,32.617 L10.1,27.02" id="Fill-2"></path>
                        <path d="M26.276,0.223 L11.879,0.223 L11.879,5.934 L24.85,5.934 C25.324,5.934 25.706,6.317 25.706,6.789 L25.706,26.061 C25.706,26.533 25.326,27.004 24.853,27.004 L21.482,27.004 L21.479,32.627 L26.276,32.627 C29.115,32.627 31.415,30.327 31.415,27.489 L31.415,5.362 C31.415,2.524 29.115,0.223 26.276,0.223" id="Fill-3"></path>
                        <path d="M39.161,10.58 L34.281,10.58 L34.281,16.289 L37.734,16.289 C38.208,16.289 38.59,16.674 38.59,17.147 L38.59,35.418 C38.59,35.891 38.208,36.276 37.734,36.276 L19.463,36.276 C18.991,36.276 18.606,35.891 18.606,35.418 L18.606,17.147 C18.606,16.674 18.991,16.289 19.463,16.289 L22.85,16.289 L22.85,10.607 L18.035,10.58 C15.196,10.58 12.896,12.881 12.896,15.719 L12.896,36.848 C12.896,39.684 15.196,41.985 18.035,41.985 L39.161,41.985 C41.999,41.985 44.299,39.684 44.299,36.848 L44.299,15.719 C44.299,12.881 41.999,10.58 39.161,10.58" id="Fill-5"></path>
                    </g>
                    <path d="M139.096,14.223 L136.797,14.223 L136.797,11.725 L136.926,11.61 C137.235,11.332 137.582,11.096 137.962,10.879 C138.341,10.69 138.741,10.537 139.142,10.401 C139.68,10.223 140.266,10.164 140.83,10.164 C141.545,10.164 142.267,10.336 142.763,10.887 C143.105,11.266 143.399,11.723 143.472,12.239 L143.476,12.266 L143.476,12.291 C143.476,12.377 143.484,12.465 143.492,12.547 C143.509,12.686 143.515,12.826 143.515,12.965 L143.515,25.209 C143.515,25.981 143.643,26.963 144.326,27.45 C145.037,27.957 146.061,28.112 146.913,28.151 C147.36,28.17 147.808,28.184 148.251,28.17 C148.637,28.159 149.021,28.127 149.403,28.075 C149.774,28.022 150.145,27.952 150.513,27.864 C150.843,27.784 151.174,27.707 151.505,27.633 L151.505,12.254 C151.505,11.844 151.525,11.188 151.785,10.85 C152.052,10.504 152.554,10.442 152.96,10.442 L154.549,10.442 C154.96,10.442 155.502,10.494 155.758,10.864 C155.991,11.204 156.004,11.856 156.004,12.254 L155.964,28.139 L155.964,34.676 C155.964,36.2 155.721,37.844 154.847,39.131 C154.11,40.215 153.153,41.063 151.985,41.676 C151.497,41.918 150.981,42.112 150.461,42.274 C149.907,42.446 149.348,42.594 148.783,42.719 C148.256,42.832 147.722,42.918 147.184,42.963 C146.805,42.991 146.386,43.018 146.006,42.985 C145.387,42.983 144.77,42.965 144.156,42.924 C143.553,42.883 142.956,42.791 142.371,42.659 C141.804,42.53 141.235,42.403 140.674,42.26 C140.349,42.174 139.954,42.057 139.671,41.871 C139.392,41.696 139.215,41.428 139.215,41.094 C139.215,40.807 139.304,40.491 139.392,40.225 C139.502,39.871 139.621,39.512 139.759,39.168 C139.867,38.897 140.018,38.629 140.235,38.432 C140.461,38.225 140.744,38.133 141.047,38.133 C141.374,38.133 141.733,38.217 142.046,38.307 C142.602,38.465 143.169,38.586 143.744,38.672 C144.514,38.789 145.387,38.766 146.173,38.729 C146.884,38.709 147.737,38.674 148.437,38.498 C149.285,38.309 150.132,37.973 150.781,37.381 C151.422,36.793 151.564,35.871 151.545,35.037 L151.512,31.278 C151.064,31.637 150.553,31.912 149.986,32.002 C149.563,32.094 149.142,32.164 148.714,32.225 C148.181,32.301 147.634,32.326 147.101,32.326 C145.164,32.366 142.667,32.186 141.056,30.983 C139.542,29.856 139.096,28.043 139.096,26.237 L139.096,14.223 Z M134.011,4.399 C133.434,4.399 132.854,4.371 132.277,4.319 C131.762,4.272 131.241,4.266 130.726,4.319 C130.273,4.366 129.834,4.475 129.419,4.662 C129.01,4.848 128.696,5.164 128.452,5.534 C128.039,6.164 127.893,6.953 127.862,7.694 C127.822,8.633 127.801,9.571 127.801,10.512 L127.801,10.762 L132.093,10.762 C132.665,10.762 133.463,10.848 133.703,11.461 C133.878,11.909 133.907,12.493 133.907,12.969 C133.907,13.266 133.907,13.567 133.888,13.864 C133.874,14.104 133.817,14.352 133.672,14.547 C133.508,14.762 133.258,14.86 132.998,14.895 C132.704,14.936 132.391,14.938 132.093,14.938 L127.801,14.938 L127.763,30.401 C127.761,30.694 127.756,31.026 127.695,31.313 C127.638,31.577 127.506,31.807 127.282,31.963 C127.061,32.118 126.79,32.176 126.527,32.19 C126.216,32.207 125.904,32.211 125.593,32.211 C125.237,32.211 124.879,32.209 124.522,32.19 C124.265,32.178 123.991,32.131 123.769,31.998 C123.513,31.844 123.386,31.59 123.348,31.301 C123.309,31.008 123.302,30.696 123.304,30.397 L123.344,14.592 L123.344,10.076 C123.344,8.795 123.39,7.506 123.526,6.233 C123.638,5.164 123.922,4.118 124.466,3.186 C125.018,2.246 125.773,1.516 126.751,1.035 C127.822,0.508 129.071,0.309 130.242,0.264 C130.999,0.207 131.759,0.211 132.518,0.264 C133.249,0.313 133.976,0.385 134.697,0.506 C135.06,0.567 135.573,0.684 135.762,1.038 C135.954,1.389 135.777,2.051 135.679,2.41 C135.553,2.869 135.381,3.498 135.143,3.91 C134.901,4.33 134.472,4.457 134.011,4.399 Z M114.1,14.502 L111.803,14.502 L111.803,12.004 L111.93,11.889 C112.238,11.612 112.586,11.375 112.968,11.159 C113.343,10.969 113.745,10.817 114.147,10.68 C114.684,10.502 115.27,10.444 115.834,10.444 C116.551,10.444 117.271,10.616 117.767,11.166 C118.108,11.545 118.402,12.002 118.476,12.518 L118.479,12.545 L118.479,12.571 C118.479,12.657 118.49,12.745 118.496,12.826 C118.511,12.965 118.52,13.106 118.52,13.244 L118.52,30.399 C118.52,30.692 118.511,31.026 118.452,31.313 C118.398,31.565 118.279,31.791 118.073,31.952 C117.86,32.118 117.585,32.176 117.322,32.19 C117.012,32.207 116.701,32.211 116.389,32.211 C116.034,32.211 115.674,32.209 115.316,32.19 C115.063,32.178 114.787,32.131 114.566,31.998 C114.313,31.844 114.182,31.59 114.144,31.301 C114.104,31.008 114.1,30.696 114.1,30.399 L114.1,14.502 Z M95.263,15.871 L95.263,28.377 C95.413,28.405 95.561,28.43 95.712,28.454 C95.982,28.498 96.257,28.547 96.53,28.594 C96.87,28.653 97.215,28.686 97.559,28.707 C97.999,28.735 98.441,28.746 98.882,28.746 C99.391,28.746 99.928,28.703 100.422,28.563 C100.757,28.469 101.12,28.354 101.434,28.2 C102.064,27.829 102.573,27.295 102.983,26.696 C103.479,25.975 103.812,25.172 104.018,24.326 C104.317,23.09 104.354,21.653 104.325,20.385 C104.292,18.897 103.997,17.389 103.228,16.096 C102.655,15.129 101.676,14.684 100.607,14.498 C100.151,14.428 99.583,14.455 99.121,14.483 C98.354,14.526 97.555,14.78 96.847,15.069 C96.298,15.291 95.763,15.555 95.263,15.871 Z M95.263,11.934 C95.395,11.866 95.524,11.799 95.657,11.731 C95.924,11.6 96.193,11.471 96.477,11.344 C97.71,10.846 99.025,10.643 100.348,10.643 C100.864,10.643 101.395,10.7 101.905,10.764 C102.591,10.854 103.254,11.061 103.88,11.352 C105.606,12.151 106.839,13.469 107.654,15.18 C108.577,17.114 108.901,19.28 108.901,21.407 C108.901,22.905 108.689,24.389 108.208,25.809 C107.784,27.049 107.206,28.248 106.407,29.282 C105.779,30.127 105.002,30.901 104.049,31.377 C103.378,31.713 102.636,32.034 101.913,32.198 C100.899,32.459 99.848,32.561 98.805,32.567 C96.223,32.584 93.453,32.289 91.071,31.225 L90.844,31.125 L90.805,2.274 C90.805,1.983 90.815,1.67 90.872,1.385 C90.924,1.125 91.038,0.885 91.251,0.721 C91.464,0.555 91.736,0.495 92.001,0.481 C92.311,0.463 92.624,0.461 92.934,0.461 C93.29,0.461 93.649,0.463 94.005,0.481 C94.261,0.495 94.537,0.541 94.758,0.674 C95.006,0.823 95.139,1.067 95.196,1.344 C95.255,1.639 95.263,1.971 95.263,2.272 L95.263,11.934 Z M73.664,26.332 C74.023,26.989 74.549,27.465 75.219,27.795 C76.006,28.182 76.882,28.368 77.753,28.43 C78.665,28.496 79.662,28.463 80.537,28.172 C81.214,27.946 81.82,27.592 82.294,27.055 C82.78,26.504 83.099,25.844 83.302,25.141 C83.554,24.276 83.661,23.366 83.685,22.465 C83.709,21.465 83.654,20.457 83.491,19.469 C83.352,18.621 83.099,17.791 82.681,17.038 C82.312,16.369 81.812,15.821 81.165,15.413 C80.454,14.961 79.611,14.78 78.779,14.739 C77.839,14.696 76.826,14.766 75.949,15.127 C75.236,15.418 74.621,15.85 74.142,16.455 C73.642,17.086 73.31,17.819 73.102,18.594 C72.857,19.51 72.757,20.461 72.757,21.416 C72.734,22.323 72.781,23.239 72.931,24.135 C73.061,24.901 73.289,25.649 73.664,26.332 Z M77.261,32.487 C75.794,32.377 74.367,32.028 73.064,31.332 C71.373,30.432 70.122,29.114 69.327,27.37 C68.417,25.381 68.239,23.102 68.38,20.946 C68.477,19.475 68.745,18.018 69.234,16.623 C69.679,15.354 70.34,14.192 71.258,13.201 C72.169,12.219 73.281,11.516 74.542,11.063 C76,10.534 77.6,10.424 79.138,10.524 C80.578,10.618 81.994,10.959 83.251,11.686 C84.393,12.344 85.338,13.225 86.074,14.319 C86.847,15.469 87.343,16.766 87.636,18.118 C87.965,19.627 88.076,21.18 88.023,22.727 C87.974,24.168 87.747,25.612 87.245,26.967 C86.794,28.186 86.115,29.274 85.165,30.166 C84.204,31.067 83.059,31.684 81.805,32.075 C80.348,32.53 78.777,32.598 77.261,32.487 Z M60.974,14.502 L58.675,14.502 L58.675,12.004 L58.803,11.889 C59.111,11.612 59.459,11.375 59.839,11.159 C60.218,10.969 60.619,10.817 61.02,10.68 C61.558,10.502 62.144,10.444 62.708,10.444 C63.423,10.444 64.144,10.616 64.64,11.166 C64.982,11.545 65.277,12.002 65.349,12.518 L65.353,12.545 L65.353,12.571 C65.353,12.657 65.361,12.745 65.37,12.826 C65.386,12.965 65.393,13.106 65.393,13.244 L65.393,34.916 C65.393,36.063 65.238,37.207 64.855,38.291 C64.48,39.358 63.845,40.266 63.007,41.024 C62.195,41.76 61.255,42.346 60.186,42.618 C59.464,42.799 58.618,42.985 57.871,42.985 C57.421,42.985 56.593,42.977 56.306,42.563 C56.072,42.225 56.058,41.573 56.058,41.176 C56.058,40.877 56.06,40.575 56.079,40.28 C56.094,40.039 56.148,39.791 56.294,39.598 C56.451,39.387 56.693,39.282 56.943,39.231 C57.238,39.172 57.57,39.166 57.861,39.166 C58.719,39.12 59.46,38.803 60.076,38.188 C60.755,37.51 60.974,36.602 60.974,35.668 L60.974,14.502 L60.974,14.502 Z" id="Fill-6" fill="#393A39"></path>
                    <path d="M59.925,3.588 C59.925,3.2 59.931,2.778 59.995,2.397 C60.051,2.071 60.187,1.768 60.447,1.555 C60.701,1.349 61.018,1.263 61.34,1.246 C61.727,1.225 62.119,1.223 62.509,1.223 C62.952,1.223 63.4,1.225 63.845,1.246 C64.177,1.259 64.536,1.323 64.817,1.511 C65.111,1.704 65.266,2.009 65.323,2.352 C65.388,2.746 65.393,3.189 65.393,3.588 L65.393,4.453 C65.393,4.841 65.386,5.262 65.323,5.646 C65.268,5.972 65.132,6.27 64.872,6.483 C64.612,6.696 64.284,6.777 63.956,6.794 C63.575,6.816 63.192,6.818 62.81,6.818 C62.358,6.818 61.902,6.818 61.45,6.794 C61.122,6.781 60.778,6.715 60.5,6.53 C60.208,6.334 60.053,6.029 59.995,5.688 C59.929,5.297 59.925,4.851 59.925,4.453 L59.925,3.588" id="Fill-8" fill="#206B80"></path>
                    <path d="M113.052,3.588 C113.052,3.2 113.058,2.778 113.122,2.397 C113.177,2.071 113.314,1.768 113.574,1.555 C113.827,1.349 114.145,1.263 114.466,1.246 C114.854,1.225 115.246,1.223 115.636,1.223 C116.079,1.223 116.526,1.225 116.972,1.246 C117.304,1.259 117.662,1.323 117.943,1.511 C118.237,1.704 118.393,2.009 118.449,2.352 C118.514,2.746 118.52,3.189 118.52,3.588 L118.52,4.453 C118.52,4.841 118.513,5.262 118.449,5.646 C118.395,5.972 118.259,6.27 117.999,6.483 C117.739,6.696 117.411,6.777 117.083,6.794 C116.701,6.816 116.319,6.818 115.936,6.818 C115.485,6.818 115.029,6.818 114.577,6.794 C114.249,6.781 113.905,6.715 113.627,6.53 C113.335,6.334 113.179,6.029 113.122,5.688 C113.056,5.297 113.052,4.851 113.052,4.453 L113.052,3.588" id="Fill-9" fill="#206B80"></path>
                </g>
            </g>
        </g>
    </g>
</svg>